STARTFONT 2.1
COMMENT
COMMENT Converted from OpenType font "ChicagoFLF.ttf" by "otf2bdf 3.0".
COMMENT
FONT -FreeType-ChicagoFLF-Medium-R-Normal--25-240-75-75-P-123-ISO10646-1
SIZE 24 75 75
FONTBOUNDINGBOX 29 30 -1 -5
STARTPROPERTIES 19
FOUNDRY "FreeType"
FAMILY_NAME "ChicagoFLF"
WEIGHT_NAME "Medium"
SLANT "R"
SETWIDTH_NAME "Normal"
ADD_STYLE_NAME ""
PIXEL_SIZE 25
POINT_SIZE 240
RESOLUTION_X 75
RESOLUTION_Y 75
SPACING "P"
AVERAGE_WIDTH 123
CHARSET_REGISTRY "ISO10646"
CHARSET_ENCODING "1"
FONT_ASCENT 24
FONT_DESCENT 5
COPYRIGHT "4.1 (c)1990-92 by Richard A. Ware. All Rights Reserved."
_OTF_FONTFILE "ChicagoFLF.ttf"
_OTF_PSNAME "ChicagoFLF"
ENDPROPERTIES
CHARS 252
STARTCHAR 0005
ENCODING 5
SWIDTH 520 0
DWIDTH 13 0
BBX 11 4 1 16
BITMAP
4080
F0C0
3FE0
1F00
ENDCHAR
STARTCHAR 0006
ENCODING 6
SWIDTH 320 0
DWIDTH 8 0
BBX 4 4 2 17
BITMAP
F0
F0
F0
F0
ENDCHAR
STARTCHAR 0008
ENCODING 8
SWIDTH 400 0
DWIDTH 10 0
BBX 8 8 1 16
BITMAP
3C
7E
43
C3
C3
67
7E
08
ENDCHAR
STARTCHAR 000A
ENCODING 10
SWIDTH 440 0
DWIDTH 11 0
BBX 7 4 2 17
BITMAP
66
66
CC
CC
ENDCHAR
STARTCHAR 000B
ENCODING 11
SWIDTH 320 0
DWIDTH 8 0
BBX 5 5 2 -5
BITMAP
E0
E0
E0
78
38
ENDCHAR
STARTCHAR 000C
ENCODING 12
SWIDTH 520 0
DWIDTH 13 0
BBX 10 5 2 17
BITMAP
E1C0
7300
3E00
1C00
0800
ENDCHAR
STARTCHAR 000D
ENCODING 13
SWIDTH 320 0
DWIDTH 8 0
BBX 4 15 2 0
BITMAP
F0
F0
F0
F0
F0
F0
F0
F0
F0
F0
F0
F0
F0
F0
F0
ENDCHAR
STARTCHAR 0019
ENCODING 25
SWIDTH 720 0
DWIDTH 18 0
BBX 17 22 1 -2
BITMAP
000380
000700
000600
000E00
001C00
001800
003800
007000
006000
00E000
01C000
018000
038000
070000
060000
0E0000
0C0000
180000
380000
300000
600000
E00000
ENDCHAR
STARTCHAR 001A
ENCODING 26
SWIDTH 800 0
DWIDTH 20 0
BBX 16 19 2 0
BITMAP
1FEF
3FEF
3C00
3C00
FF0F
FF0F
3C0F
3C0F
3C0F
3C0F
3C0F
3C0F
3C0F
3C0F
3C0F
3C0F
3C0F
3C0F
3C0F
ENDCHAR
STARTCHAR 001B
ENCODING 27
SWIDTH 760 0
DWIDTH 19 0
BBX 15 19 2 0
BITMAP
1FFE
3FFE
3C3E
3C3E
FF3E
FF3E
3C3E
3C3E
3C3E
3C3E
3C3E
3C3E
3C3E
3C3E
3C3E
3C3E
3C3E
3C3E
3C3E
ENDCHAR
STARTCHAR 001C
ENCODING 28
SWIDTH 600 0
DWIDTH 15 0
BBX 13 19 0 0
BITMAP
3C00
3C00
3C00
3C00
3C00
3C80
3C80
3D80
3F80
3F00
3E00
3C00
7C00
FC00
FC00
BC00
3C00
3FF8
3FF8
ENDCHAR
STARTCHAR 001D
ENCODING 29
SWIDTH 320 0
DWIDTH 8 0
BBX 8 19 0 0
BITMAP
3C
3C
3C
3C
3C
3C
3D
3D
3F
3F
3E
3C
7C
FC
FC
BC
3C
3C
3C
ENDCHAR
STARTCHAR 001E
ENCODING 30
SWIDTH 680 0
DWIDTH 17 0
BBX 13 23 2 0
BITMAP
1CE0
0F80
0700
0200
FFF8
FFF8
0078
0078
0078
0070
00E0
01C0
0380
0700
0E00
1C00
3800
7000
F000
F000
F000
FFF8
FFF8
ENDCHAR
STARTCHAR 001F
ENCODING 31
SWIDTH 680 0
DWIDTH 17 0
BBX 13 22 2 0
BITMAP
0070
38E0
0DC0
0780
0300
0000
0000
FFF8
FFF8
0078
00F8
01F0
03E0
07C0
0F80
1F00
3E00
7C00
F800
F000
FFF8
FFF8
ENDCHAR
STARTCHAR 0020
ENCODING 32
SWIDTH 320 0
DWIDTH 8 0
BBX 0 0 0 0
BITMAP
ENDCHAR
STARTCHAR 0021
ENCODING 33
SWIDTH 520 0
DWIDTH 13 0
BBX 4 19 4 0
BITMAP
F0
F0
F0
F0
F0
F0
F0
F0
F0
F0
F0
F0
F0
00
00
F0
F0
F0
F0
ENDCHAR
STARTCHAR 0022
ENCODING 34
SWIDTH 600 0
DWIDTH 15 0
BBX 6 6 4 13
BITMAP
CC
CC
CC
CC
CC
CC
ENDCHAR
STARTCHAR 0023
ENCODING 35
SWIDTH 760 0
DWIDTH 19 0
BBX 15 15 2 4
BITMAP
0318
0618
0618
0610
3FFE
3FFE
0C20
0C60
1860
FFF8
FFF8
10C0
30C0
30C0
3180
ENDCHAR
STARTCHAR 0024
ENCODING 36
SWIDTH 600 0
DWIDTH 15 0
BBX 11 23 2 -2
BITMAP
0C00
0C00
1F00
7F80
EDC0
CCC0
EC20
FC00
FC00
FC00
7F00
3F80
1FC0
0FE0
0FE0
0DE0
0CE0
CCC0
ECC0
7FC0
3F00
0C00
0C00
ENDCHAR
STARTCHAR 0025
ENCODING 37
SWIDTH 840 0
DWIDTH 21 0
BBX 17 19 2 0
BITMAP
3FFC00
7FF800
C61800
C23000
C33000
E66000
7C6000
10E000
00C000
01C000
018000
038000
031F00
073380
062180
0E6180
0C3180
1C3F00
381E00
ENDCHAR
STARTCHAR 0026
ENCODING 38
SWIDTH 840 0
DWIDTH 21 0
BBX 17 19 2 0
BITMAP
1F8000
7FE000
70F000
F0F000
F0F180
F0F180
7C0180
3C0300
703F00
70FE00
F0F800
F0F000
F0F000
F0F000
F0F000
F0F000
F0F000
7FF000
3FC000
ENDCHAR
STARTCHAR 0027
ENCODING 39
SWIDTH 240 0
DWIDTH 6 0
BBX 2 6 2 13
BITMAP
C0
C0
C0
C0
C0
C0
ENDCHAR
STARTCHAR 0028
ENCODING 40
SWIDTH 400 0
DWIDTH 10 0
BBX 6 23 2 -3
BITMAP
0C
1C
30
70
F0
F0
F0
F0
F0
F0
F0
F0
F0
F0
F0
F0
F0
F0
F0
70
30
1C
0C
ENDCHAR
STARTCHAR 0029
ENCODING 41
SWIDTH 400 0
DWIDTH 10 0
BBX 6 23 2 -3
BITMAP
E0
F0
38
3C
3C
3C
3C
3C
3C
3C
3C
3C
3C
3C
3C
3C
3C
3C
3C
3C
38
F0
E0
ENDCHAR
STARTCHAR 002A
ENCODING 42
SWIDTH 600 0
DWIDTH 15 0
BBX 11 13 2 7
BITMAP
0E00
0E00
8E40
EEE0
FFE0
3F80
1F00
3F80
FFE0
CE60
0E00
0E00
0E00
ENDCHAR
STARTCHAR 002B
ENCODING 43
SWIDTH 600 0
DWIDTH 15 0
BBX 11 10 2 5
BITMAP
0E00
0E00
0E00
0E00
FFE0
FFE0
0E00
0E00
0E00
0E00
ENDCHAR
STARTCHAR 002C
ENCODING 44
SWIDTH 320 0
DWIDTH 8 0
BBX 4 8 2 -4
BITMAP
F0
F0
F0
F0
30
30
70
E0
ENDCHAR
STARTCHAR 002D
ENCODING 45
SWIDTH 600 0
DWIDTH 15 0
BBX 11 2 2 8
BITMAP
FFE0
FFE0
ENDCHAR
STARTCHAR 002E
ENCODING 46
SWIDTH 320 0
DWIDTH 8 0
BBX 4 4 2 0
BITMAP
F0
F0
F0
F0
ENDCHAR
STARTCHAR 002F
ENCODING 47
SWIDTH 600 0
DWIDTH 15 0
BBX 11 20 2 0
BITMAP
00E0
00C0
0180
0180
0180
0300
0300
0600
0600
0E00
0C00
0C00
1800
1800
3000
3000
3000
6000
6000
C000
ENDCHAR
STARTCHAR 0030
ENCODING 48
SWIDTH 680 0
DWIDTH 17 0
BBX 13 19 2 0
BITMAP
3FC0
7FE0
70F0
F0F8
F0F8
F0F8
F0F8
F0F8
F0F8
F0F8
F0F8
F0F8
F0F8
F0F8
F0F8
F0F0
70F0
7FE0
1FC0
ENDCHAR
STARTCHAR 0031
ENCODING 49
SWIDTH 680 0
DWIDTH 17 0
BBX 6 19 4 0
BITMAP
3C
7C
FC
BC
3C
3C
3C
3C
3C
3C
3C
3C
3C
3C
3C
3C
3C
3C
3C
ENDCHAR
STARTCHAR 0032
ENCODING 50
SWIDTH 680 0
DWIDTH 17 0
BBX 13 19 2 0
BITMAP
0F80
3FE0
70F0
C0F0
C0F8
00F8
00F8
00F8
00F0
01E0
03C0
0780
0F00
1E00
3C00
7800
F000
FFF8
FFF8
ENDCHAR
STARTCHAR 0033
ENCODING 51
SWIDTH 680 0
DWIDTH 17 0
BBX 13 19 2 0
BITMAP
FFF8
FFF8
00F0
03E0
07C0
0F80
1E00
3FE0
3FF0
00F0
00F8
00F8
00F8
00F8
00F8
C0F0
E0F0
7FE0
3FC0
ENDCHAR
STARTCHAR 0034
ENCODING 52
SWIDTH 680 0
DWIDTH 17 0
BBX 15 19 2 0
BITMAP
00F8
01F8
03F8
07F8
0FF8
1EF8
3CF8
78F8
F0F8
E0F8
C0F8
FFFE
FFFE
00F8
00F8
00F8
00F8
00F8
00F8
ENDCHAR
STARTCHAR 0035
ENCODING 53
SWIDTH 680 0
DWIDTH 17 0
BBX 13 19 2 0
BITMAP
FFF0
FFF0
F000
F000
F000
F000
FF80
FFE0
00F0
00F0
00F8
00F8
00F8
00F8
00F8
C0F0
E0F0
7FE0
1FC0
ENDCHAR
STARTCHAR 0036
ENCODING 54
SWIDTH 680 0
DWIDTH 17 0
BBX 13 19 2 0
BITMAP
03E0
07E0
0E00
1C00
3800
7000
FF80
FFE0
FFF0
F0F0
F0F8
F0F8
F0F8
F0F8
F0F8
F0F0
70F0
7FE0
3FC0
ENDCHAR
STARTCHAR 0037
ENCODING 55
SWIDTH 680 0
DWIDTH 17 0
BBX 13 19 2 0
BITMAP
FFF8
FFF8
00F8
00F8
00F8
00F8
00F8
00F8
01F0
03E0
07C0
0F80
0F00
0F00
0F00
0F00
0F00
0F00
0F00
ENDCHAR
STARTCHAR 0038
ENCODING 56
SWIDTH 680 0
DWIDTH 17 0
BBX 13 19 2 0
BITMAP
3FC0
7FF0
F0F0
F0F0
F0F8
F0F8
F0F8
F0F0
7FF0
3FE0
7FF0
F0F0
F0F8
F0F8
F0F8
F0F0
70F0
7FE0
1FC0
ENDCHAR
STARTCHAR 0039
ENCODING 57
SWIDTH 680 0
DWIDTH 17 0
BBX 13 19 2 0
BITMAP
1F80
7FE0
70F0
F0F0
F0F8
F0F8
F0F8
F0F8
F0F8
F0F8
F0F8
7FF8
1FF8
00F0
00E0
01C0
0380
3F00
3E00
ENDCHAR
STARTCHAR 003A
ENCODING 58
SWIDTH 320 0
DWIDTH 8 0
BBX 4 15 2 0
BITMAP
F0
F0
F0
F0
F0
00
00
00
00
00
00
F0
F0
F0
F0
ENDCHAR
STARTCHAR 003B
ENCODING 59
SWIDTH 320 0
DWIDTH 8 0
BBX 4 19 2 -4
BITMAP
F0
F0
F0
F0
F0
00
00
00
00
00
00
F0
F0
F0
F0
30
30
70
E0
ENDCHAR
STARTCHAR 003C
ENCODING 60
SWIDTH 520 0
DWIDTH 13 0
BBX 11 13 1 3
BITMAP
03E0
0780
0F00
1E00
3C00
7C00
F800
7C00
3C00
1E00
0F00
0780
03E0
ENDCHAR
STARTCHAR 003D
ENCODING 61
SWIDTH 680 0
DWIDTH 17 0
BBX 13 7 2 6
BITMAP
FFF8
FFF8
FFF8
0000
0000
FFF8
FFF8
ENDCHAR
STARTCHAR 003E
ENCODING 62
SWIDTH 520 0
DWIDTH 13 0
BBX 11 13 1 3
BITMAP
F800
3C00
1E00
0F00
0780
07C0
03E0
07C0
0780
0F00
1E00
3C00
F800
ENDCHAR
STARTCHAR 003F
ENCODING 63
SWIDTH 680 0
DWIDTH 17 0
BBX 13 19 2 0
BITMAP
1F80
3FE0
70F0
C0F0
C0F8
00F8
01F0
03E0
07C0
0780
0F00
0F00
0F00
0000
0000
0F00
0F00
0F00
0F00
ENDCHAR
STARTCHAR 0040
ENCODING 64
SWIDTH 920 0
DWIDTH 23 0
BBX 19 17 2 0
BITMAP
07FC00
3FFF00
7001C0
6000C0
C3F8E0
C7F860
C7F860
C61860
C61860
C61860
C618E0
C7FFE0
C3FFC0
E00000
700000
3FFE00
1FFE00
ENDCHAR
STARTCHAR 0041
ENCODING 65
SWIDTH 680 0
DWIDTH 17 0
BBX 13 19 2 0
BITMAP
1F80
3FE0
70F0
F0F0
F0F8
F0F8
F0F8
F0F8
F0F8
FFF8
FFF8
F0F8
F0F8
F0F8
F0F8
F0F8
F0F8
F0F8
F0F8
ENDCHAR
STARTCHAR 0042
ENCODING 66
SWIDTH 680 0
DWIDTH 17 0
BBX 13 19 2 0
BITMAP
FFC0
FFF0
F870
F878
F878
F878
F878
F878
F870
FFE0
FFF0
F878
F878
F878
F878
F878
F878
FFF0
FFE0
ENDCHAR
STARTCHAR 0043
ENCODING 67
SWIDTH 680 0
DWIDTH 17 0
BBX 13 19 2 0
BITMAP
1FE0
7FF0
7838
7818
F800
F800
F800
F800
F800
F800
F800
F800
F800
F800
F800
7818
7838
7FF0
1FE0
ENDCHAR
STARTCHAR 0044
ENCODING 68
SWIDTH 680 0
DWIDTH 17 0
BBX 13 19 2 0
BITMAP
FFC0
FFF0
F0F0
F0F8
F0F8
F0F8
F0F8
F0F8
F0F8
F0F8
F0F8
F0F8
F0F8
F0F8
F0F8
F0F0
F0F0
FFE0
FF80
ENDCHAR
STARTCHAR 0045
ENCODING 69
SWIDTH 600 0
DWIDTH 15 0
BBX 11 19 2 0
BITMAP
FFE0
FFE0
F000
F000
F000
F000
F000
F000
FF00
FF00
F000
F000
F000
F000
F000
F000
F000
FFE0
FFE0
ENDCHAR
STARTCHAR 0046
ENCODING 70
SWIDTH 600 0
DWIDTH 15 0
BBX 11 19 2 0
BITMAP
FFE0
FFE0
F000
F000
F000
F000
F000
F000
FF00
FF00
FF00
F000
F000
F000
F000
F000
F000
F000
F000
ENDCHAR
STARTCHAR 0047
ENCODING 71
SWIDTH 680 0
DWIDTH 17 0
BBX 13 19 2 0
BITMAP
3FC0
7FF0
F030
F038
F000
F000
F000
F000
F3F8
F3F8
F0F8
F0F8
F0F8
F0F8
F0F8
F0F0
70F0
7FE0
1F80
ENDCHAR
STARTCHAR 0048
ENCODING 72
SWIDTH 680 0
DWIDTH 17 0
BBX 13 19 2 0
BITMAP
F0F8
F0F8
F0F8
F0F8
F0F8
F0F8
F0F8
F0F8
FFF8
FFF8
FFF8
F0F8
F0F8
F0F8
F0F8
F0F8
F0F8
F0F8
F0F8
ENDCHAR
STARTCHAR 0049
ENCODING 73
SWIDTH 520 0
DWIDTH 13 0
BBX 4 19 4 0
BITMAP
F0
F0
F0
F0
F0
F0
F0
F0
F0
F0
F0
F0
F0
F0
F0
F0
F0
F0
F0
ENDCHAR
STARTCHAR 004A
ENCODING 74
SWIDTH 600 0
DWIDTH 15 0
BBX 13 19 0 0
BITMAP
00F8
00F8
00F8
00F8
00F8
00F8
00F8
00F8
00F8
00F8
00F8
F0F8
F0F8
F0F8
F0F8
F0F0
F0F0
7FE0
3FC0
ENDCHAR
STARTCHAR 004B
ENCODING 75
SWIDTH 760 0
DWIDTH 19 0
BBX 15 19 2 0
BITMAP
F03E
F078
F0F0
F1E0
F3C0
F780
FF00
FE00
FC00
FC00
FE00
FF00
FF00
F780
F3C0
F1E0
F0F0
F078
F03E
ENDCHAR
STARTCHAR 004C
ENCODING 76
SWIDTH 600 0
DWIDTH 15 0
BBX 11 19 2 0
BITMAP
F000
F000
F000
F000
F000
F000
F000
F000
F000
F000
F000
F000
F000
F000
F000
F000
F000
FFE0
FFE0
ENDCHAR
STARTCHAR 004D
ENCODING 77
SWIDTH 1000 0
DWIDTH 25 0
BBX 21 19 2 0
BITMAP
C00018
E00038
F00078
F800F8
FC01F8
FE03F8
FF07F8
FF8FF8
DFDF78
CFFE78
C7FC78
C3F878
C1F078
C0E078
C04078
C00078
C00078
C00078
C00078
ENDCHAR
STARTCHAR 004E
ENCODING 78
SWIDTH 760 0
DWIDTH 19 0
BBX 15 19 2 0
BITMAP
C006
E006
F006
F806
FC06
FE06
FF06
FF86
DFC6
CFE6
C7F6
C3FE
C1FE
C0FE
C07E
C03E
C01E
C00E
C006
ENDCHAR
STARTCHAR 004F
ENCODING 79
SWIDTH 680 0
DWIDTH 17 0
BBX 13 19 2 0
BITMAP
3FC0
7FF0
70F0
F0F8
F0F8
F0F8
F0F8
F0F8
F0F8
F0F8
F0F8
F0F8
F0F8
F0F8
F0F8
F0F0
70F0
7FE0
1FC0
ENDCHAR
STARTCHAR 0050
ENCODING 80
SWIDTH 680 0
DWIDTH 17 0
BBX 13 19 2 0
BITMAP
FFC0
FFF0
F0F0
F0F0
F0F8
F0F8
F0F8
F0F0
F0F0
FFE0
FFC0
F000
F000
F000
F000
F000
F000
F000
F000
ENDCHAR
STARTCHAR 0051
ENCODING 81
SWIDTH 680 0
DWIDTH 17 0
BBX 13 21 2 -2
BITMAP
3FC0
7FF0
F0F0
F0F8
F0F8
F0F8
F0F8
F0F8
F0F8
F0F8
F0F8
F0F8
F0F8
F0F8
F0F8
F0F0
F0F0
7FF0
1FC0
00F8
00F8
ENDCHAR
STARTCHAR 0052
ENCODING 82
SWIDTH 680 0
DWIDTH 17 0
BBX 13 19 2 0
BITMAP
FFC0
FFF0
F0F0
F0F8
F0F8
F0F8
F0F8
F0F0
F0F0
FFE0
FFF0
F0F0
F0F8
F0F8
F0F8
F0F8
F0F8
F0F8
F0F8
ENDCHAR
STARTCHAR 0053
ENCODING 83
SWIDTH 600 0
DWIDTH 15 0
BBX 10 19 2 0
BITMAP
0E00
7F80
71C0
F0C0
F0C0
F000
F800
7C00
7E00
3F00
1F80
07C0
07C0
03C0
03C0
C3C0
E3C0
7FC0
3F00
ENDCHAR
STARTCHAR 0054
ENCODING 84
SWIDTH 520 0
DWIDTH 13 0
BBX 13 19 0 0
BITMAP
FFF8
FFF8
0F00
0F00
0F00
0F00
0F00
0F00
0F00
0F00
0F00
0F00
0F00
0F00
0F00
0F00
0F00
0F00
0F00
ENDCHAR
STARTCHAR 0055
ENCODING 85
SWIDTH 680 0
DWIDTH 17 0
BBX 13 19 2 0
BITMAP
F0F8
F0F8
F0F8
F0F8
F0F8
F0F8
F0F8
F0F8
F0F8
F0F8
F0F8
F0F8
F0F8
F0F8
F0F8
F0F0
70F0
7FE0
3FC0
ENDCHAR
STARTCHAR 0056
ENCODING 86
SWIDTH 680 0
DWIDTH 17 0
BBX 13 19 2 0
BITMAP
F0F8
F0F8
F0F8
F0F8
F0F8
F0F8
F0F8
F0F8
F0F8
F0F8
F0F8
F0F8
F0F8
F0F8
F0F0
F1E0
F3C0
FF80
FF00
ENDCHAR
STARTCHAR 0057
ENCODING 87
SWIDTH 1000 0
DWIDTH 25 0
BBX 21 19 2 0
BITMAP
F0F878
F0F878
F0F878
F0F878
F0F878
F0F878
F0F878
F0F878
F0F878
F0F878
F0F878
F0F878
F0F878
F0F878
F0F870
F0F8E0
F0F9C0
FFFF80
FFFF00
ENDCHAR
STARTCHAR 0058
ENCODING 88
SWIDTH 680 0
DWIDTH 17 0
BBX 13 19 2 0
BITMAP
F0F8
F0F8
F0F8
F0F8
F0F8
F0F8
F0F8
F0F0
7FF0
3FC0
7FF0
F0F0
F0F8
F0F8
F0F8
F0F8
F0F8
F0F8
F0F8
ENDCHAR
STARTCHAR 0059
ENCODING 89
SWIDTH 680 0
DWIDTH 17 0
BBX 13 19 2 0
BITMAP
F0F8
F0F8
F0F8
F0F8
F0F8
F0F8
F0F0
70E0
39C0
1F80
0F00
0F00
0F00
0F00
0F00
0F00
0F00
0F00
0F00
ENDCHAR
STARTCHAR 005A
ENCODING 90
SWIDTH 680 0
DWIDTH 17 0
BBX 13 19 2 0
BITMAP
FFF8
FFF8
0078
0078
0078
0070
00E0
01C0
0380
0700
0E00
1800
7000
F000
F000
F000
F000
FFF8
FFF8
ENDCHAR
STARTCHAR 005B
ENCODING 91
SWIDTH 400 0
DWIDTH 10 0
BBX 6 23 2 -3
BITMAP
FC
FC
F0
F0
F0
F0
F0
F0
F0
F0
F0
F0
F0
F0
F0
F0
F0
F0
F0
F0
F0
FC
FC
ENDCHAR
STARTCHAR 005C
ENCODING 92
SWIDTH 640 0
DWIDTH 16 0
BBX 12 22 2 -2
BITMAP
E000
6000
7000
3000
3000
1800
1800
1C00
0C00
0E00
0600
0600
0700
0300
0380
0180
0180
00C0
00C0
00E0
0060
0070
ENDCHAR
STARTCHAR 005D
ENCODING 93
SWIDTH 400 0
DWIDTH 10 0
BBX 6 23 2 -3
BITMAP
FC
FC
3C
3C
3C
3C
3C
3C
3C
3C
3C
3C
3C
3C
3C
3C
3C
3C
3C
3C
3C
FC
FC
ENDCHAR
STARTCHAR 005E
ENCODING 94
SWIDTH 680 0
DWIDTH 17 0
BBX 11 6 3 13
BITMAP
0400
0E00
1B00
1980
30C0
E0E0
ENDCHAR
STARTCHAR 005F
ENCODING 95
SWIDTH 680 0
DWIDTH 17 0
BBX 17 2 0 0
BITMAP
FFFF80
FFFF80
ENDCHAR
STARTCHAR 0060
ENCODING 96
SWIDTH 480 0
DWIDTH 12 0
BBX 6 4 3 16
BITMAP
E0
60
30
1C
ENDCHAR
STARTCHAR 0061
ENCODING 97
SWIDTH 680 0
DWIDTH 17 0
BBX 13 15 2 0
BITMAP
3FC0
7FF0
E0F0
C0F8
1FF8
7FF8
FFF8
F0F8
F0F8
F0F8
F0F8
F0F8
70F8
3FF8
0FF8
ENDCHAR
STARTCHAR 0062
ENCODING 98
SWIDTH 680 0
DWIDTH 17 0
BBX 13 19 2 0
BITMAP
F000
F000
F000
F000
FFC0
FFF0
F0F0
F0F8
F0F8
F0F8
F0F8
F0F8
F0F8
F0F8
F0F8
F0F0
FFF0
FFE0
FF80
ENDCHAR
STARTCHAR 0063
ENCODING 99
SWIDTH 600 0
DWIDTH 15 0
BBX 11 15 2 0
BITMAP
0E00
3F80
73C0
F0C0
F0E0
F000
F000
F000
F000
F000
F000
F0E0
71C0
7F80
1F00
ENDCHAR
STARTCHAR 0064
ENCODING 100
SWIDTH 680 0
DWIDTH 17 0
BBX 13 19 2 0
BITMAP
00F8
00F8
00F8
00F8
1FF8
7FF8
70F8
F0F8
F0F8
F0F8
F0F8
F0F8
F0F8
F0F8
F0F8
F0F8
7FF8
3FF8
0FF8
ENDCHAR
STARTCHAR 0065
ENCODING 101
SWIDTH 680 0
DWIDTH 17 0
BBX 13 14 2 0
BITMAP
3FE0
7FF0
F0F0
F0F8
F0F8
F0F8
FFF8
FFF8
F000
F000
F038
F030
7FF0
3FE0
ENDCHAR
STARTCHAR 0066
ENCODING 102
SWIDTH 520 0
DWIDTH 13 0
BBX 11 19 2 0
BITMAP
1FE0
3FE0
3C00
3C00
FF00
FF00
3C00
3C00
3C00
3C00
3C00
3C00
3C00
3C00
3C00
3C00
3C00
3C00
3C00
ENDCHAR
STARTCHAR 0067
ENCODING 103
SWIDTH 680 0
DWIDTH 17 0
BBX 13 20 2 -5
BITMAP
0FF8
3FF8
70F8
F0F8
F0F8
F0F8
F0F8
F0F8
F0F8
F0F8
F0F8
F0F8
7FF8
3FF8
00F8
00F8
C0F8
E0F0
7FF0
3FC0
ENDCHAR
STARTCHAR 0068
ENCODING 104
SWIDTH 680 0
DWIDTH 17 0
BBX 13 19 2 0
BITMAP
F000
F000
F000
F000
FFC0
FFE0
F0F0
F0F0
F0F8
F0F8
F0F8
F0F8
F0F8
F0F8
F0F8
F0F8
F0F8
F0F8
F0F8
ENDCHAR
STARTCHAR 0069
ENCODING 105
SWIDTH 320 0
DWIDTH 8 0
BBX 4 19 2 0
BITMAP
F0
F0
00
00
F0
F0
F0
F0
F0
F0
F0
F0
F0
F0
F0
F0
F0
F0
F0
ENDCHAR
STARTCHAR 006A
ENCODING 106
SWIDTH 520 0
DWIDTH 13 0
BBX 11 24 0 -5
BITMAP
03E0
03E0
0000
0000
03E0
03E0
03E0
03E0
03E0
03E0
03E0
03E0
03E0
03E0
03E0
03E0
03E0
03E0
03E0
03E0
C3C0
E3C0
7F80
3F00
ENDCHAR
STARTCHAR 006B
ENCODING 107
SWIDTH 680 0
DWIDTH 17 0
BBX 13 19 2 0
BITMAP
F000
F000
F000
F000
F0F8
F1E0
F3C0
F780
FF00
FE00
FC00
F800
FC00
FE00
FF00
F780
F3C0
F1E0
F0F8
ENDCHAR
STARTCHAR 006C
ENCODING 108
SWIDTH 320 0
DWIDTH 8 0
BBX 4 19 2 0
BITMAP
F0
F0
F0
F0
F0
F0
F0
F0
F0
F0
F0
F0
F0
F0
F0
F0
F0
F0
F0
ENDCHAR
STARTCHAR 006D
ENCODING 109
SWIDTH 1000 0
DWIDTH 25 0
BBX 21 15 2 0
BITMAP
FFFFE0
FFFFF0
F0F870
F0F878
F0F878
F0F878
F0F878
F0F878
F0F878
F0F878
F0F878
F0F878
F0F878
F0F878
F0F878
ENDCHAR
STARTCHAR 006E
ENCODING 110
SWIDTH 680 0
DWIDTH 17 0
BBX 13 15 2 0
BITMAP
FFC0
FFE0
F0F0
F0F0
F0F8
F0F8
F0F8
F0F8
F0F8
F0F8
F0F8
F0F8
F0F8
F0F8
F0F8
ENDCHAR
STARTCHAR 006F
ENCODING 111
SWIDTH 680 0
DWIDTH 17 0
BBX 13 15 2 0
BITMAP
3FC0
7FF0
F0F0
F0F8
F0F8
F0F8
F0F8
F0F8
F0F8
F0F8
F0F8
F0F0
7FF0
7FE0
0F80
ENDCHAR
STARTCHAR 0070
ENCODING 112
SWIDTH 680 0
DWIDTH 17 0
BBX 13 19 2 -4
BITMAP
FFC0
FFF0
F0F0
F0F8
F0F8
F0F8
F0F8
F0F8
F0F8
F0F8
F0F8
F0F0
FFF0
FFE0
FF80
F000
F000
F000
F000
ENDCHAR
STARTCHAR 0071
ENCODING 113
SWIDTH 680 0
DWIDTH 17 0
BBX 13 19 2 -4
BITMAP
0FF8
3FF8
7FF8
F0F8
F0F8
F0F8
F0F8
F0F8
F0F8
F0F8
F0F8
F0F8
70F8
7FF8
1FF8
00F8
00F8
00F8
00F8
ENDCHAR
STARTCHAR 0072
ENCODING 114
SWIDTH 520 0
DWIDTH 13 0
BBX 11 15 2 0
BITMAP
F020
F3E0
FFC0
FC00
F800
F000
F000
F000
F000
F000
F000
F000
F000
F000
F000
ENDCHAR
STARTCHAR 0073
ENCODING 115
SWIDTH 600 0
DWIDTH 15 0
BBX 10 15 2 0
BITMAP
3F00
7F80
F0C0
F0C0
F800
FE00
7F00
3F80
1FC0
0FC0
03C0
C3C0
E3C0
7F80
3F00
ENDCHAR
STARTCHAR 0074
ENCODING 116
SWIDTH 480 0
DWIDTH 12 0
BBX 8 19 2 0
BITMAP
3C
3C
3C
3C
FF
FF
3C
3C
3C
3C
3C
3C
3C
3C
3C
3C
3F
1F
0F
ENDCHAR
STARTCHAR 0075
ENCODING 117
SWIDTH 680 0
DWIDTH 17 0
BBX 13 15 2 0
BITMAP
F0F8
F0F8
F0F8
F0F8
F0F8
F0F8
F0F8
F0F8
F0F8
F0F8
F0F8
F0F8
F0F8
7FF8
3FF8
ENDCHAR
STARTCHAR 0076
ENCODING 118
SWIDTH 680 0
DWIDTH 17 0
BBX 13 15 2 0
BITMAP
F0F8
F0F8
F0F8
F0F8
F0F8
F0F8
F0F8
F0F8
F0F8
F0F8
F0F0
F0E0
F1C0
FF80
FF00
ENDCHAR
STARTCHAR 0077
ENCODING 119
SWIDTH 1000 0
DWIDTH 25 0
BBX 21 15 2 0
BITMAP
F0F878
F0F878
F0F878
F0F878
F0F878
F0F878
F0F878
F0F878
F0F878
F0F870
F0F860
F0F8C0
FFFF80
FFFF00
FFFF00
ENDCHAR
STARTCHAR 0078
ENCODING 120
SWIDTH 680 0
DWIDTH 17 0
BBX 13 15 2 0
BITMAP
F0F8
F0F8
F0F8
F0F8
F0F0
F0F0
7FF0
3FC0
7FF0
70F0
F0F0
F0F8
F0F8
F0F8
F0F8
ENDCHAR
STARTCHAR 0079
ENCODING 121
SWIDTH 680 0
DWIDTH 17 0
BBX 13 20 2 -5
BITMAP
F0F8
F0F8
F0F8
F0F8
F0F8
F0F8
F0F8
F0F8
F0F8
F0F8
F0F8
70F8
7FF8
0FF8
00F8
C0F8
E0F0
7FF0
3FE0
0F80
ENDCHAR
STARTCHAR 007A
ENCODING 122
SWIDTH 680 0
DWIDTH 17 0
BBX 13 15 2 0
BITMAP
FFF8
FFF8
FFF8
00F8
01F0
03E0
07C0
0F80
1F00
3E00
7C00
F800
F000
FFF8
FFF8
ENDCHAR
STARTCHAR 007B
ENCODING 123
SWIDTH 400 0
DWIDTH 10 0
BBX 6 24 2 -4
BITMAP
0C
1C
18
30
30
30
30
30
30
30
30
60
E0
70
30
30
30
30
30
30
30
38
1C
0C
ENDCHAR
STARTCHAR 007C
ENCODING 124
SWIDTH 400 0
DWIDTH 10 0
BBX 2 22 4 -2
BITMAP
C0
C0
C0
C0
C0
C0
C0
C0
C0
C0
C0
C0
C0
C0
C0
C0
C0
C0
C0
C0
C0
C0
ENDCHAR
STARTCHAR 007D
ENCODING 125
SWIDTH 400 0
DWIDTH 10 0
BBX 6 24 2 -4
BITMAP
C0
F0
70
30
30
30
30
30
30
30
38
1C
1C
38
30
30
30
30
30
30
30
70
E0
C0
ENDCHAR
STARTCHAR 007E
ENCODING 126
SWIDTH 680 0
DWIDTH 17 0
BBX 13 4 2 11
BITMAP
3C38
7E30
E3F0
C1E0
ENDCHAR
STARTCHAR 00A1
ENCODING 161
SWIDTH 520 0
DWIDTH 13 0
BBX 5 19 4 -4
BITMAP
F8
F8
F8
F8
00
00
F8
F8
F8
F8
F8
F8
F8
F8
F8
F8
F8
F8
F8
ENDCHAR
STARTCHAR 00A2
ENCODING 162
SWIDTH 600 0
DWIDTH 15 0
BBX 11 17 2 0
BITMAP
0C00
0C00
3F80
7FC0
ECC0
CCC0
CCC0
CC20
CC00
CC00
CCE0
CCC0
ECC0
7FC0
3F80
0C00
0C00
ENDCHAR
STARTCHAR 00A3
ENCODING 163
SWIDTH 760 0
DWIDTH 19 0
BBX 15 19 2 0
BITMAP
1FF0
3FF8
3C38
3C38
3C00
3C00
3C00
3C00
3C00
FF00
FF00
3C00
3C00
3C00
3C00
3C06
3C0E
FFFC
FFFC
ENDCHAR
STARTCHAR 00A4
ENCODING 164
SWIDTH 600 0
DWIDTH 15 0
BBX 11 10 2 4
BITMAP
DE40
7FE0
7180
60C0
40C0
40C0
60C0
3180
7FC0
C060
ENDCHAR
STARTCHAR 00A5
ENCODING 165
SWIDTH 840 0
DWIDTH 21 0
BBX 18 19 2 0
BITMAP
F80FC0
3C1F00
1E3E00
0F7C00
FFFF80
FFFF80
03C000
03C000
FFFF80
FFFF80
03C000
03C000
03C000
03C000
03C000
03C000
03C000
03C000
03C000
ENDCHAR
STARTCHAR 00A6
ENCODING 166
SWIDTH 400 0
DWIDTH 10 0
BBX 2 18 4 0
BITMAP
C0
C0
C0
C0
C0
C0
C0
00
00
00
00
C0
C0
C0
C0
C0
C0
C0
ENDCHAR
STARTCHAR 00A7
ENCODING 167
SWIDTH 600 0
DWIDTH 15 0
BBX 11 26 2 -5
BITMAP
7F80
FFC0
E1E0
C0E0
C0E0
E000
F000
3800
7C00
EE00
C780
C3C0
C0E0
E0E0
70E0
38E0
1FC0
0FC0
0380
01C0
00C0
00E0
C0E0
E0E0
FFC0
7FC0
ENDCHAR
STARTCHAR 00A8
ENCODING 168
SWIDTH 520 0
DWIDTH 13 0
BBX 9 2 2 17
BITMAP
C180
C180
ENDCHAR
STARTCHAR 00A9
ENCODING 169
SWIDTH 840 0
DWIDTH 21 0
BBX 19 19 1 0
BITMAP
07FC00
0FFE00
1C0700
380380
73FDC0
63FCC0
C30C60
C30C60
C30060
C30060
C30C60
C30C60
E3FC60
63F8C0
7001C0
380380
1E0F00
0FFE00
03F800
ENDCHAR
STARTCHAR 00AA
ENCODING 170
SWIDTH 600 0
DWIDTH 15 0
BBX 11 17 2 2
BITMAP
7F80
E1C0
C1E0
1FE0
7FE0
F1E0
F1E0
F1E0
F1E0
F1E0
71E0
7FE0
0FE0
0000
0000
FFE0
FFE0
ENDCHAR
STARTCHAR 00AB
ENCODING 171
SWIDTH 840 0
DWIDTH 21 0
BBX 18 15 1 0
BITMAP
01E380
038700
070E00
0E1C00
1C3800
387000
70E000
F1C000
38E000
1C7000
0E3800
071C00
038E00
01C700
00E3C0
ENDCHAR
STARTCHAR 00AC
ENCODING 172
SWIDTH 600 0
DWIDTH 15 0
BBX 11 6 2 4
BITMAP
FFE0
FFE0
00E0
00E0
00E0
00E0
ENDCHAR
STARTCHAR 00AE
ENCODING 174
SWIDTH 840 0
DWIDTH 21 0
BBX 19 19 1 0
BITMAP
07FC00
0FFE00
1C0700
380380
73F9C0
63FCC0
C30C60
C30C60
C3F860
C3F860
C30C60
C30C60
E30C60
630CC0
730DC0
380380
1E0F00
0FFE00
03F800
ENDCHAR
STARTCHAR 00AF
ENCODING 175
SWIDTH 520 0
DWIDTH 13 0
BBX 9 2 2 17
BITMAP
FF80
FF80
ENDCHAR
STARTCHAR 00B0
ENCODING 176
SWIDTH 520 0
DWIDTH 13 0
BBX 9 8 2 11
BITMAP
3E00
7F00
E300
C380
C300
E300
7F00
3C00
ENDCHAR
STARTCHAR 00B1
ENCODING 177
SWIDTH 600 0
DWIDTH 15 0
BBX 11 15 2 0
BITMAP
0C00
0C00
0C00
0C00
FFE0
FFE0
0C00
0C00
0C00
0C00
0000
0000
0000
FFE0
FFE0
ENDCHAR
STARTCHAR 00B2
ENCODING 178
SWIDTH 400 0
DWIDTH 10 0
BBX 6 9 2 10
BITMAP
78
8C
0C
0C
18
30
60
C0
FC
ENDCHAR
STARTCHAR 00B3
ENCODING 179
SWIDTH 400 0
DWIDTH 10 0
BBX 6 10 2 10
BITMAP
FC
1C
30
78
0C
0C
0C
8C
FC
30
ENDCHAR
STARTCHAR 00B4
ENCODING 180
SWIDTH 480 0
DWIDTH 12 0
BBX 6 4 3 16
BITMAP
1C
18
30
E0
ENDCHAR
STARTCHAR 00B5
ENCODING 181
SWIDTH 840 0
DWIDTH 21 0
BBX 17 19 2 -4
BITMAP
3C3E00
3C3E00
3C3E00
3C3E00
3C3E00
3C3E00
3C3E00
3C3E00
3C3E00
3C3E00
3C3E00
3C3E00
3FFF80
3FFB80
3FF080
300000
F00000
E00000
800000
ENDCHAR
STARTCHAR 00B6
ENCODING 182
SWIDTH 680 0
DWIDTH 17 0
BBX 13 19 2 0
BITMAP
3FF8
7FF8
6338
C338
C338
C338
C338
E338
7F38
7F38
0F38
0338
0338
0338
0338
0338
0338
0338
0338
ENDCHAR
STARTCHAR 00B7
ENCODING 183
SWIDTH 320 0
DWIDTH 8 0
BBX 4 4 2 8
BITMAP
F0
F0
F0
F0
ENDCHAR
STARTCHAR 00B8
ENCODING 184
SWIDTH 320 0
DWIDTH 8 0
BBX 4 5 2 -5
BITMAP
30
30
30
F0
C0
ENDCHAR
STARTCHAR 00B9
ENCODING 185
SWIDTH 320 0
DWIDTH 8 0
BBX 4 10 2 10
BITMAP
70
F0
70
70
70
70
70
70
70
70
ENDCHAR
STARTCHAR 00BA
ENCODING 186
SWIDTH 600 0
DWIDTH 15 0
BBX 11 18 2 2
BITMAP
3F80
7FC0
F1E0
F1E0
F1E0
F1E0
F1E0
F1E0
F1E0
F1E0
F1E0
7FC0
3F80
0000
0000
0000
FFE0
FFE0
ENDCHAR
STARTCHAR 00BB
ENCODING 187
SWIDTH 840 0
DWIDTH 21 0
BBX 17 15 2 0
BITMAP
F3C000
78E000
3C7000
1E3800
0F1C00
078E00
03C700
01E380
03C700
078E00
0F1C00
1E3800
3C7000
78E000
F3C000
ENDCHAR
STARTCHAR 00BC
ENCODING 188
SWIDTH 800 0
DWIDTH 20 0
BBX 18 20 1 0
BITMAP
1801C0
380300
180300
180600
180C00
181800
183800
183000
186000
18C000
018000
018700
030F00
061B00
0C3300
1C2300
183F80
300300
600300
C00300
ENDCHAR
STARTCHAR 00BD
ENCODING 189
SWIDTH 800 0
DWIDTH 20 0
BBX 18 20 1 0
BITMAP
1801C0
380300
180300
180600
180C00
181800
181800
183000
186000
18C000
018000
019F00
031180
060180
0C0300
0C0300
180600
300C00
601800
E01F80
ENDCHAR
STARTCHAR 00BE
ENCODING 190
SWIDTH 800 0
DWIDTH 20 0
BBX 18 20 1 0
BITMAP
7E01C0
0E0300
180300
3C0600
060C00
061800
063800
463000
7E6000
18C000
018000
018700
030F00
061B00
0C3300
1C2300
183F80
300300
600300
C00300
ENDCHAR
STARTCHAR 00BF
ENCODING 191
SWIDTH 680 0
DWIDTH 17 0
BBX 13 19 2 -4
BITMAP
0F80
0F80
0F80
0F80
0000
0000
0F80
0F80
0F80
0F00
1E00
3E00
7C00
F800
F018
F038
7070
3FE0
0FC0
ENDCHAR
STARTCHAR 00C0
ENCODING 192
SWIDTH 680 0
DWIDTH 17 0
BBX 13 22 2 0
BITMAP
0C00
0600
0100
1F80
3FE0
70F0
F0F0
F0F8
F0F8
F0F8
F0F8
F0F8
FFF8
FFF8
F0F8
F0F8
F0F8
F0F8
F0F8
F0F8
F0F8
F0F8
ENDCHAR
STARTCHAR 00C1
ENCODING 193
SWIDTH 680 0
DWIDTH 17 0
BBX 13 22 2 0
BITMAP
0180
0300
0400
1F80
3FE0
70F0
F0F0
F0F8
F0F8
F0F8
F0F8
F0F8
FFF8
FFF8
F0F8
F0F8
F0F8
F0F8
F0F8
F0F8
F0F8
F0F8
ENDCHAR
STARTCHAR 00C2
ENCODING 194
SWIDTH 680 0
DWIDTH 17 0
BBX 13 23 2 0
BITMAP
0200
0700
0980
1040
1F80
3FE0
70F0
F0F0
F0F8
F0F8
F0F8
F0F8
F0F8
FFF8
FFF8
F0F8
F0F8
F0F8
F0F8
F0F8
F0F8
F0F8
F0F8
ENDCHAR
STARTCHAR 00C3
ENCODING 195
SWIDTH 680 0
DWIDTH 17 0
BBX 13 22 2 0
BITMAP
0EC0
1B80
0000
1F80
3FE0
70F0
F0F0
F0F8
F0F8
F0F8
F0F8
F0F8
FFF8
FFF8
F0F8
F0F8
F0F8
F0F8
F0F8
F0F8
F0F8
F0F8
ENDCHAR
STARTCHAR 00C4
ENCODING 196
SWIDTH 680 0
DWIDTH 17 0
BBX 13 22 2 0
BITMAP
30C0
30C0
0000
1F80
3FE0
70F0
F0F0
F0F8
F0F8
F0F8
F0F8
F0F8
FFF8
FFF8
F0F8
F0F8
F0F8
F0F8
F0F8
F0F8
F0F8
F0F8
ENDCHAR
STARTCHAR 00C5
ENCODING 197
SWIDTH 680 0
DWIDTH 17 0
BBX 13 25 2 0
BITMAP
0200
0D80
0880
0980
0700
0000
1F80
3FE0
70F0
F0F0
F0F8
F0F8
F0F8
F0F8
F0F8
FFF8
FFF8
F0F8
F0F8
F0F8
F0F8
F0F8
F0F8
F0F8
F0F8
ENDCHAR
STARTCHAR 00C6
ENCODING 198
SWIDTH 920 0
DWIDTH 23 0
BBX 19 19 2 0
BITMAP
3FFFE0
7FFFE0
F0F800
F0F800
F0F800
F0F800
F0F800
F0F800
F0FF80
FFFF80
F0F800
F0F800
F0F800
F0F800
F0F800
F0F800
F0F800
F0FFE0
F0FFE0
ENDCHAR
STARTCHAR 00C7
ENCODING 199
SWIDTH 680 0
DWIDTH 17 0
BBX 13 24 2 -5
BITMAP
3FC0
7FF0
F030
F038
F000
F000
F000
F000
F000
F000
F000
F000
F000
F000
F000
F038
F030
7FF0
3FC0
0700
0700
0700
1E00
1C00
ENDCHAR
STARTCHAR 00C8
ENCODING 200
SWIDTH 600 0
DWIDTH 15 0
BBX 11 22 2 0
BITMAP
0C00
0600
0100
FFE0
FFE0
F000
F000
F000
F000
F000
F000
F000
FF00
FF00
F000
F000
F000
F000
F000
F000
FFE0
FFE0
ENDCHAR
STARTCHAR 00C9
ENCODING 201
SWIDTH 600 0
DWIDTH 15 0
BBX 11 22 2 0
BITMAP
0300
0600
0800
FFE0
FFE0
F000
F000
F000
F000
F000
F000
F000
FF00
FF00
F000
F000
F000
F000
F000
F000
FFE0
FFE0
ENDCHAR
STARTCHAR 00CA
ENCODING 202
SWIDTH 600 0
DWIDTH 15 0
BBX 11 23 2 0
BITMAP
0400
0E00
1B00
2080
FFE0
FFE0
F000
F000
F000
F000
F000
F000
F000
FF00
FF00
F000
F000
F000
F000
F000
F000
FFE0
FFE0
ENDCHAR
STARTCHAR 00CB
ENCODING 203
SWIDTH 600 0
DWIDTH 15 0
BBX 11 22 2 0
BITMAP
2180
2180
0000
FFE0
FFE0
F000
F000
F000
F000
F000
F000
F000
FF00
FF00
F000
F000
F000
F000
F000
F000
FFE0
FFE0
ENDCHAR
STARTCHAR 00CC
ENCODING 204
SWIDTH 520 0
DWIDTH 13 0
BBX 4 22 4 0
BITMAP
C0
20
10
F0
F0
F0
F0
F0
F0
F0
F0
F0
F0
F0
F0
F0
F0
F0
F0
F0
F0
F0
ENDCHAR
STARTCHAR 00CD
ENCODING 205
SWIDTH 520 0
DWIDTH 13 0
BBX 6 22 4 0
BITMAP
0C
18
20
F0
F0
F0
F0
F0
F0
F0
F0
F0
F0
F0
F0
F0
F0
F0
F0
F0
F0
F0
ENDCHAR
STARTCHAR 00CE
ENCODING 206
SWIDTH 520 0
DWIDTH 13 0
BBX 7 23 3 0
BITMAP
10
38
4C
82
78
78
78
78
78
78
78
78
78
78
78
78
78
78
78
78
78
78
78
ENDCHAR
STARTCHAR 00CF
ENCODING 207
SWIDTH 520 0
DWIDTH 13 0
BBX 8 22 2 0
BITMAP
C3
C3
00
3C
3C
3C
3C
3C
3C
3C
3C
3C
3C
3C
3C
3C
3C
3C
3C
3C
3C
3C
ENDCHAR
STARTCHAR 00D0
ENCODING 208
SWIDTH 680 0
DWIDTH 17 0
BBX 14 19 1 0
BITMAP
7FE0
7FF8
7878
787C
787C
787C
787C
787C
FE7C
FE7C
787C
787C
787C
787C
787C
7878
7878
7FF0
7FC0
ENDCHAR
STARTCHAR 00D1
ENCODING 209
SWIDTH 760 0
DWIDTH 19 0
BBX 15 22 2 0
BITMAP
0F60
0BC0
0000
8006
C006
E006
F806
FC06
FE06
FF06
FF86
DFC6
CFE6
C7F6
C3FE
C1FE
C0FE
C07E
C03E
C01E
C00E
C006
ENDCHAR
STARTCHAR 00D2
ENCODING 210
SWIDTH 680 0
DWIDTH 17 0
BBX 13 22 2 0
BITMAP
1800
0C00
0200
1F80
7FE0
70F0
F0F0
F0F8
F0F8
F0F8
F0F8
F0F8
F0F8
F0F8
F0F8
F0F8
F0F8
F0F8
F0F8
F0F0
7FF0
3FC0
ENDCHAR
STARTCHAR 00D3
ENCODING 211
SWIDTH 680 0
DWIDTH 17 0
BBX 13 22 2 0
BITMAP
0180
0300
0400
1F80
7FE0
70F0
F0F0
F0F8
F0F8
F0F8
F0F8
F0F8
F0F8
F0F8
F0F8
F0F8
F0F8
F0F8
F0F8
F0F0
7FF0
3FC0
ENDCHAR
STARTCHAR 00D4
ENCODING 212
SWIDTH 680 0
DWIDTH 17 0
BBX 13 23 2 0
BITMAP
0200
0700
0980
1040
1F80
7FE0
70F0
F0F0
F0F8
F0F8
F0F8
F0F8
F0F8
F0F8
F0F8
F0F8
F0F8
F0F8
F0F8
F0F8
F0F0
7FF0
3FC0
ENDCHAR
STARTCHAR 00D5
ENCODING 213
SWIDTH 680 0
DWIDTH 17 0
BBX 13 22 2 0
BITMAP
0EC0
1B80
0000
1F80
7FE0
70F0
F0F0
F0F8
F0F8
F0F8
F0F8
F0F8
F0F8
F0F8
F0F8
F0F8
F0F8
F0F8
F0F8
F0F0
7FF0
3FC0
ENDCHAR
STARTCHAR 00D6
ENCODING 214
SWIDTH 680 0
DWIDTH 17 0
BBX 13 22 2 0
BITMAP
30C0
30C0
0000
1F80
7FE0
70F0
F0F0
F0F8
F0F8
F0F8
F0F8
F0F8
F0F8
F0F8
F0F8
F0F8
F0F8
F0F8
F0F8
F0F0
7FF0
3FC0
ENDCHAR
STARTCHAR 00D7
ENCODING 215
SWIDTH 680 0
DWIDTH 17 0
BBX 13 15 2 0
BITMAP
F0F8
F0F8
F0F8
F0F8
F0F0
F0F0
7FF0
3FC0
7FF0
70F0
F0F0
F0F8
F0F8
F0F8
F0F8
ENDCHAR
STARTCHAR 00D8
ENCODING 216
SWIDTH 680 0
DWIDTH 17 0
BBX 18 19 -1 0
BITMAP
03F880
0FFFC0
0E0F80
1E0F00
1E0F00
1E1F00
1E3F00
1E7F00
1E6F00
1EEF00
1FCF00
1F8F00
1F0F00
1E0F00
1E0F00
3E0F00
7E0E00
EFFE00
27F800
ENDCHAR
STARTCHAR 00D9
ENCODING 217
SWIDTH 680 0
DWIDTH 17 0
BBX 13 22 2 0
BITMAP
1800
0400
0200
F0F8
F0F8
F0F8
F0F8
F0F8
F0F8
F0F8
F0F8
F0F8
F0F8
F0F8
F0F8
F0F8
F0F8
F0F8
F0F0
F0F0
7FE0
3FC0
ENDCHAR
STARTCHAR 00DA
ENCODING 218
SWIDTH 680 0
DWIDTH 17 0
BBX 13 22 2 0
BITMAP
01C0
0300
0000
F0F8
F0F8
F0F8
F0F8
F0F8
F0F8
F0F8
F0F8
F0F8
F0F8
F0F8
F0F8
F0F8
F0F8
F0F8
F0F0
F0F0
7FE0
3FC0
ENDCHAR
STARTCHAR 00DB
ENCODING 219
SWIDTH 680 0
DWIDTH 17 0
BBX 13 23 2 0
BITMAP
0200
0700
0980
1040
F0F8
F0F8
F0F8
F0F8
F0F8
F0F8
F0F8
F0F8
F0F8
F0F8
F0F8
F0F8
F0F8
F0F8
F0F8
F0F0
F0F0
7FE0
3FC0
ENDCHAR
STARTCHAR 00DC
ENCODING 220
SWIDTH 680 0
DWIDTH 17 0
BBX 13 22 2 0
BITMAP
30C0
30C0
0000
F0F8
F0F8
F0F8
F0F8
F0F8
F0F8
F0F8
F0F8
F0F8
F0F8
F0F8
F0F8
F0F8
F0F8
F0F8
F0F0
F0F0
7FE0
3FC0
ENDCHAR
STARTCHAR 00DD
ENCODING 221
SWIDTH 680 0
DWIDTH 17 0
BBX 13 22 2 0
BITMAP
01C0
0300
0000
F0F8
F0F8
F0F8
F0F8
F0F8
F0F8
F0F8
70F0
39E0
1FC0
0F80
0F00
0F00
0F00
0F00
0F00
0F00
0F00
0F00
ENDCHAR
STARTCHAR 00DE
ENCODING 222
SWIDTH 680 0
DWIDTH 17 0
BBX 13 19 2 0
BITMAP
F000
F000
F000
F000
FFC0
FFE0
FFF0
F0F0
F0F8
F0F8
F0F8
F0F0
F0F0
FFE0
FFC0
F000
F000
F000
F000
ENDCHAR
STARTCHAR 00DF
ENCODING 223
SWIDTH 760 0
DWIDTH 19 0
BBX 15 19 2 0
BITMAP
0FF8
1FFC
3C3E
3C3E
3C3E
3C3C
3C7C
3C78
3C3C
3C3E
3C3E
3C3E
3C3E
3C3E
3C3E
3C3E
3C3C
FCFC
FCF0
ENDCHAR
STARTCHAR 00E0
ENCODING 224
SWIDTH 680 0
DWIDTH 17 0
BBX 13 20 2 0
BITMAP
3800
0C00
0600
0600
0100
0F80
7FE0
F0F0
C0F0
00F8
3FF8
7FF8
F0F8
F0F8
F0F8
F0F8
F0F8
F0F8
7FF8
3FF8
ENDCHAR
STARTCHAR 00E1
ENCODING 225
SWIDTH 680 0
DWIDTH 17 0
BBX 13 20 2 0
BITMAP
00C0
0180
0300
0600
0000
0F80
7FE0
F0F0
C0F0
00F8
3FF8
7FF8
F0F8
F0F8
F0F8
F0F8
F0F8
F0F8
7FF8
3FF8
ENDCHAR
STARTCHAR 00E2
ENCODING 226
SWIDTH 680 0
DWIDTH 17 0
BBX 13 21 2 0
BITMAP
0400
0600
0F80
19C0
2000
0000
0F80
7FE0
F0F0
C0F0
00F8
3FF8
7FF8
F0F8
F0F8
F0F8
F0F8
F0F8
F0F8
7FF8
3FF8
ENDCHAR
STARTCHAR 00E3
ENCODING 227
SWIDTH 680 0
DWIDTH 17 0
BBX 13 19 2 0
BITMAP
3E70
3FE0
6180
0000
0F80
7FE0
F0F0
C0F0
00F8
3FF8
7FF8
F0F8
F0F8
F0F8
F0F8
F0F8
F0F8
7FF8
3FF8
ENDCHAR
STARTCHAR 00E4
ENCODING 228
SWIDTH 680 0
DWIDTH 17 0
BBX 13 19 2 0
BITMAP
30C0
30C0
0000
0000
0F80
7FE0
F0F0
C0F0
00F8
3FF8
7FF8
F0F8
F0F8
F0F8
F0F8
F0F8
F0F8
7FF8
3FF8
ENDCHAR
STARTCHAR 00E5
ENCODING 229
SWIDTH 680 0
DWIDTH 17 0
BBX 13 23 2 0
BITMAP
0F80
1980
10C0
10C0
1880
0F80
0200
0000
0F80
7FE0
F0F0
C0F0
00F8
3FF8
7FF8
F0F8
F0F8
F0F8
F0F8
F0F8
F0F8
7FF8
3FF8
ENDCHAR
STARTCHAR 00E6
ENCODING 230
SWIDTH 1000 0
DWIDTH 25 0
BBX 21 15 2 0
BITMAP
3FDFC0
7FFFF0
E0FFF0
C0F878
00F878
3FF878
7FF878
F0FFF8
F0FFF8
F0F800
F0F800
F0F818
F0F838
7FFFF0
3FFFE0
ENDCHAR
STARTCHAR 00E7
ENCODING 231
SWIDTH 600 0
DWIDTH 15 0
BBX 11 20 2 -5
BITMAP
0E00
3F80
73C0
F0C0
F0E0
F000
F000
F000
F000
F000
F000
F0E0
71C0
7F80
3F00
0E00
0E00
0E00
3C00
3000
ENDCHAR
STARTCHAR 00E8
ENCODING 232
SWIDTH 680 0
DWIDTH 17 0
BBX 13 20 2 0
BITMAP
1800
0C00
0600
0300
0000
0F80
3FE0
70F0
F0F0
F0F8
F0F8
F0F8
FFF8
FFF8
F000
F000
F038
7070
7FE0
3FC0
ENDCHAR
STARTCHAR 00E9
ENCODING 233
SWIDTH 680 0
DWIDTH 17 0
BBX 13 20 2 0
BITMAP
00C0
0180
0300
0600
0000
0F80
3FE0
70F0
F0F0
F0F8
F0F8
F0F8
FFF8
FFF8
F000
F000
F038
7070
7FE0
3FC0
ENDCHAR
STARTCHAR 00EA
ENCODING 234
SWIDTH 680 0
DWIDTH 17 0
BBX 13 21 2 0
BITMAP
0400
0600
0F80
19C0
2000
0000
0F80
3FE0
70F0
F0F0
F0F8
F0F8
F0F8
FFF8
FFF8
F000
F000
F038
7070
7FE0
3FC0
ENDCHAR
STARTCHAR 00EB
ENCODING 235
SWIDTH 680 0
DWIDTH 17 0
BBX 13 19 2 0
BITMAP
30C0
30C0
0000
0000
0F80
3FE0
70F0
F0F0
F0F8
F0F8
F0F8
FFF8
FFF8
F000
F000
F038
7070
7FE0
3FC0
ENDCHAR
STARTCHAR 00EC
ENCODING 236
SWIDTH 320 0
DWIDTH 8 0
BBX 6 20 0 0
BITMAP
E0
30
18
18
04
3C
3C
3C
3C
3C
3C
3C
3C
3C
3C
3C
3C
3C
3C
3C
ENDCHAR
STARTCHAR 00ED
ENCODING 237
SWIDTH 320 0
DWIDTH 8 0
BBX 7 20 2 0
BITMAP
0E
18
38
30
40
F0
F0
F0
F0
F0
F0
F0
F0
F0
F0
F0
F0
F0
F0
F0
ENDCHAR
STARTCHAR 00EE
ENCODING 238
SWIDTH 320 0
DWIDTH 8 0
BBX 8 21 0 0
BITMAP
10
18
3C
66
81
00
3C
3C
3C
3C
3C
3C
3C
3C
3C
3C
3C
3C
3C
3C
3C
ENDCHAR
STARTCHAR 00EF
ENCODING 239
SWIDTH 320 0
DWIDTH 8 0
BBX 8 19 0 0
BITMAP
C3
C3
00
00
3C
3C
3C
3C
3C
3C
3C
3C
3C
3C
3C
3C
3C
3C
3C
ENDCHAR
STARTCHAR 00F0
ENCODING 240
SWIDTH 680 0
DWIDTH 17 0
BBX 13 21 2 0
BITMAP
0200
0600
3FF0
3FF8
08F8
00F8
3FF8
7FF8
F0F8
F0F8
F0F8
F0F8
F0F8
F0F8
F0F8
F0F8
F0F8
F0F0
7FF0
7FE0
0F80
ENDCHAR
STARTCHAR 00F1
ENCODING 241
SWIDTH 680 0
DWIDTH 17 0
BBX 13 19 2 0
BITMAP
3E60
7FE0
6380
0000
FF80
FFE0
F0F0
F0F0
F0F8
F0F8
F0F8
F0F8
F0F8
F0F8
F0F8
F0F8
F0F8
F0F8
F0F8
ENDCHAR
STARTCHAR 00F2
ENCODING 242
SWIDTH 680 0
DWIDTH 17 0
BBX 13 20 2 0
BITMAP
3800
1800
0C00
0600
0100
0F80
3FE0
70F0
F0F0
F0F8
F0F8
F0F8
F0F8
F0F8
F0F8
F0F8
F0F8
F0F0
7FF0
3FC0
ENDCHAR
STARTCHAR 00F3
ENCODING 243
SWIDTH 680 0
DWIDTH 17 0
BBX 13 20 2 0
BITMAP
00C0
0180
0300
0600
0000
0F80
3FE0
70F0
F0F0
F0F8
F0F8
F0F8
F0F8
F0F8
F0F8
F0F8
F0F8
F0F0
7FF0
3FC0
ENDCHAR
STARTCHAR 00F4
ENCODING 244
SWIDTH 680 0
DWIDTH 17 0
BBX 13 21 2 0
BITMAP
0400
0600
0F80
19C0
2000
0000
0F80
3FE0
70F0
F0F0
F0F8
F0F8
F0F8
F0F8
F0F8
F0F8
F0F8
F0F8
F0F0
7FF0
3FC0
ENDCHAR
STARTCHAR 00F5
ENCODING 245
SWIDTH 680 0
DWIDTH 17 0
BBX 13 19 2 0
BITMAP
3E70
3FE0
61C0
0000
0F80
3FE0
70F0
F0F0
F0F8
F0F8
F0F8
F0F8
F0F8
F0F8
F0F8
F0F8
F0F0
7FF0
3FC0
ENDCHAR
STARTCHAR 00F6
ENCODING 246
SWIDTH 680 0
DWIDTH 17 0
BBX 13 19 2 0
BITMAP
30C0
30C0
0000
0000
0F80
3FE0
70F0
F0F0
F0F8
F0F8
F0F8
F0F8
F0F8
F0F8
F0F8
F0F8
F0F0
7FF0
3FC0
ENDCHAR
STARTCHAR 00F7
ENCODING 247
SWIDTH 600 0
DWIDTH 15 0
BBX 11 11 2 4
BITMAP
0C00
0C00
0000
0000
0000
FFE0
FFE0
0000
0000
0C00
0C00
ENDCHAR
STARTCHAR 00F8
ENCODING 248
SWIDTH 680 0
DWIDTH 17 0
BBX 16 16 0 0
BITMAP
0002
0FF7
1FFF
3C3E
3C3E
3C7E
3CFE
3DFE
3FFE
3FBE
3F3E
3E3E
7C3C
FC3C
FFF8
43E0
ENDCHAR
STARTCHAR 00F9
ENCODING 249
SWIDTH 680 0
DWIDTH 17 0
BBX 13 20 2 0
BITMAP
3800
0C00
0600
0600
0100
F0F8
F0F8
F0F8
F0F8
F0F8
F0F8
F0F8
F0F8
F0F8
F0F8
F0F8
F0F8
F0F8
7FF8
3FF8
ENDCHAR
STARTCHAR 00FA
ENCODING 250
SWIDTH 680 0
DWIDTH 17 0
BBX 13 20 2 0
BITMAP
00C0
0180
0300
0600
0000
F0F8
F0F8
F0F8
F0F8
F0F8
F0F8
F0F8
F0F8
F0F8
F0F8
F0F8
F0F8
F0F8
7FF8
3FF8
ENDCHAR
STARTCHAR 00FB
ENCODING 251
SWIDTH 680 0
DWIDTH 17 0
BBX 13 21 2 0
BITMAP
0400
0600
0F80
19C0
2000
0000
F0F8
F0F8
F0F8
F0F8
F0F8
F0F8
F0F8
F0F8
F0F8
F0F8
F0F8
F0F8
F0F8
7FF8
3FF8
ENDCHAR
STARTCHAR 00FC
ENCODING 252
SWIDTH 680 0
DWIDTH 17 0
BBX 13 19 2 0
BITMAP
30C0
30C0
0000
0000
F0F8
F0F8
F0F8
F0F8
F0F8
F0F8
F0F8
F0F8
F0F8
F0F8
F0F8
F0F8
F0F8
7FF8
3FF8
ENDCHAR
STARTCHAR 00FD
ENCODING 253
SWIDTH 680 0
DWIDTH 17 0
BBX 13 25 2 -5
BITMAP
00E0
01C0
0180
0300
0400
F0F8
F0F8
F0F8
F0F8
F0F8
F0F8
F0F8
F0F8
F0F8
F0F8
F0F8
70F8
7FF8
3FF8
00F8
00F8
C0F0
E0F0
7FE0
1FC0
ENDCHAR
STARTCHAR 00FE
ENCODING 254
SWIDTH 680 0
DWIDTH 17 0
BBX 13 23 2 -4
BITMAP
F000
F000
F000
F000
FFC0
FFF0
F0F0
F0F8
F0F8
F0F8
F0F8
F0F8
F0F8
F0F8
F0F8
F0F0
FFF0
FFE0
FF80
F000
F000
F000
F000
ENDCHAR
STARTCHAR 00FF
ENCODING 255
SWIDTH 680 0
DWIDTH 17 0
BBX 13 24 2 -5
BITMAP
30C0
30C0
0000
0000
F0F8
F0F8
F0F8
F0F8
F0F8
F0F8
F0F8
F0F8
F0F8
F0F8
F0F8
F0F8
7FF8
3FF8
00F8
00F8
C0F0
60F0
7FE0
1FC0
ENDCHAR
STARTCHAR 0152
ENCODING 338
SWIDTH 920 0
DWIDTH 23 0
BBX 19 19 2 0
BITMAP
3FFFE0
7FFFE0
70F800
F0F800
F0F800
F0F800
F0F800
F0F800
F0FF80
F0FF80
F0FF80
F0F800
F0F800
F0F800
F0F800
F0F800
70F800
7FFFE0
3FFFE0
ENDCHAR
STARTCHAR 0153
ENCODING 339
SWIDTH 1000 0
DWIDTH 25 0
BBX 21 15 2 0
BITMAP
1FDFC0
7FFFF0
70F870
F0F878
F0F878
F0F878
F0F878
F0FFF8
F0FFF8
F0F800
F0F800
F0F818
FFF838
7FFFF0
3FFFE0
ENDCHAR
STARTCHAR 0160
ENCODING 352
SWIDTH 600 0
DWIDTH 15 0
BBX 10 23 2 0
BITMAP
39C0
1F00
0E00
0400
1E00
7F80
71C0
F0C0
F000
F000
F800
7C00
7E00
3F00
1F80
07C0
03C0
03C0
03C0
C3C0
E3C0
7F80
3F00
ENDCHAR
STARTCHAR 0161
ENCODING 353
SWIDTH 600 0
DWIDTH 15 0
BBX 11 22 2 0
BITMAP
00E0
7180
1B00
0E00
0400
0000
0000
0E00
7F80
F3C0
F0C0
F8C0
FC00
7E00
3F00
1FC0
0FC0
07C0
C3C0
E3C0
7F80
3F00
ENDCHAR
STARTCHAR 0178
ENCODING 376
SWIDTH 680 0
DWIDTH 17 0
BBX 13 22 2 0
BITMAP
30C0
30C0
0000
F0F8
F0F8
F0F8
F0F8
F0F8
F0F8
F0F8
70F0
39E0
1FC0
0F80
0F00
0F00
0F00
0F00
0F00
0F00
0F00
0F00
ENDCHAR
STARTCHAR 0192
ENCODING 402
SWIDTH 520 0
DWIDTH 13 0
BBX 8 23 2 -4
BITMAP
1F
3F
3C
3C
3C
3C
FF
FF
3C
3C
3C
3C
3C
3C
3C
3C
3C
3C
3C
3C
3C
FC
F8
ENDCHAR
STARTCHAR 02C6
ENCODING 710
SWIDTH 520 0
DWIDTH 13 0
BBX 9 4 2 17
BITMAP
0800
1C00
3700
E380
ENDCHAR
STARTCHAR 02DC
ENCODING 732
SWIDTH 520 0
DWIDTH 13 0
BBX 11 3 1 16
BITMAP
3EE0
7FC0
E380
ENDCHAR
STARTCHAR 2013
ENCODING 8211
SWIDTH 520 0
DWIDTH 13 0
BBX 8 2 2 8
BITMAP
FF
FF
ENDCHAR
STARTCHAR 2014
ENCODING 8212
SWIDTH 840 0
DWIDTH 21 0
BBX 17 2 2 8
BITMAP
FFFF80
FFFF80
ENDCHAR
STARTCHAR 2018
ENCODING 8216
SWIDTH 320 0
DWIDTH 8 0
BBX 4 9 2 11
BITMAP
30
70
E0
C0
C0
F0
F0
F0
F0
ENDCHAR
STARTCHAR 2019
ENCODING 8217
SWIDTH 320 0
DWIDTH 8 0
BBX 4 9 2 11
BITMAP
F0
F0
F0
F0
30
30
30
70
E0
ENDCHAR
STARTCHAR 201A
ENCODING 8218
SWIDTH 320 0
DWIDTH 8 0
BBX 4 8 2 -1
BITMAP
F0
F0
F0
F0
30
30
70
E0
ENDCHAR
STARTCHAR 201C
ENCODING 8220
SWIDTH 600 0
DWIDTH 15 0
BBX 11 9 2 11
BITMAP
30C0
71C0
E380
C300
C300
F3E0
F3E0
F3E0
F3E0
ENDCHAR
STARTCHAR 201D
ENCODING 8221
SWIDTH 600 0
DWIDTH 15 0
BBX 11 9 2 11
BITMAP
F3E0
F3E0
F3E0
F3E0
30E0
30E0
30E0
71C0
E180
ENDCHAR
STARTCHAR 201E
ENCODING 8222
SWIDTH 600 0
DWIDTH 15 0
BBX 11 8 2 -1
BITMAP
F3E0
F3E0
F3E0
F3E0
30E0
30E0
70C0
E180
ENDCHAR
STARTCHAR 2020
ENCODING 8224
SWIDTH 400 0
DWIDTH 10 0
BBX 6 14 2 5
BITMAP
30
30
FC
FC
30
30
30
30
30
30
30
30
30
30
ENDCHAR
STARTCHAR 2021
ENCODING 8225
SWIDTH 400 0
DWIDTH 10 0
BBX 6 15 2 4
BITMAP
30
30
FC
FC
30
30
30
30
30
30
30
FC
FC
30
30
ENDCHAR
STARTCHAR 2022
ENCODING 8226
SWIDTH 600 0
DWIDTH 15 0
BBX 11 11 2 4
BITMAP
1F00
3F80
7FC0
FFC0
FFE0
FFE0
FFE0
FFC0
7FC0
3F80
1F00
ENDCHAR
STARTCHAR 2026
ENCODING 8230
SWIDTH 1160 0
DWIDTH 29 0
BBX 21 4 4 0
BITMAP
F0F878
F0F878
F0F878
F0F878
ENDCHAR
STARTCHAR 2030
ENCODING 8240
SWIDTH 1160 0
DWIDTH 29 0
BBX 26 19 2 0
BITMAP
3FFC0000
7FF80000
C6180000
C2300000
C3300000
E6600000
7C600000
10E00000
00C00000
01C00000
01800000
03800000
031F0F80
07339980
0621B0C0
0E61B0C0
0C3198C0
1C3F1F80
381E0F00
ENDCHAR
STARTCHAR 2039
ENCODING 8249
SWIDTH 560 0
DWIDTH 14 0
BBX 11 15 1 0
BITMAP
01E0
03C0
0780
0F00
1E00
3C00
7800
F000
7800
3C00
1E00
0F00
0780
03C0
01E0
ENDCHAR
STARTCHAR 203A
ENCODING 8250
SWIDTH 560 0
DWIDTH 14 0
BBX 11 15 2 0
BITMAP
F000
3800
1C00
0E00
0700
0380
01C0
01E0
01C0
0380
0700
0E00
1C00
3800
F000
ENDCHAR
STARTCHAR 2122
ENCODING 8482
SWIDTH 1000 0
DWIDTH 25 0
BBX 19 8 2 11
BITMAP
FC70E0
FC78E0
307DE0
306FE0
306760
306260
306060
306060
ENDCHAR
STARTCHAR 2219
ENCODING 8729
SWIDTH 320 0
DWIDTH 8 0
BBX 4 4 2 8
BITMAP
F0
F0
F0
F0
ENDCHAR
STARTCHAR E000
ENCODING 57344
SWIDTH 0 0
DWIDTH 0 0
BBX 0 0 0 0
BITMAP
ENDCHAR
STARTCHAR E001
ENCODING 57345
SWIDTH 0 0
DWIDTH 0 0
BBX 0 0 0 0
BITMAP
ENDCHAR
STARTCHAR E002
ENCODING 57346
SWIDTH 0 0
DWIDTH 0 0
BBX 0 0 0 0
BITMAP
ENDCHAR
STARTCHAR E003
ENCODING 57347
SWIDTH 960 0
DWIDTH 24 0
BBX 20 20 2 -1
BITMAP
7E07C0
420C60
C30820
810830
811830
C11820
7FFFE0
3FFF80
011800
011800
011800
1FFF00
7FFFC0
C11860
811830
811830
830820
C30C60
7E07C0
100100
ENDCHAR
STARTCHAR E004
ENCODING 57348
SWIDTH 920 0
DWIDTH 23 0
BBX 19 18 2 0
BITMAP
000020
000060
0000E0
0001E0
0003E0
0007C0
000F80
001F00
803E00
807C00
C0F800
E1F000
F3E000
FFC000
7F8000
3F0000
1E0000
0C0000
ENDCHAR
STARTCHAR E005
ENCODING 57349
SWIDTH 760 0
DWIDTH 19 0
BBX 15 15 2 0
BITMAP
0100
0380
07C0
0FE0
1FF0
3FF8
7FFC
FFFE
7FFC
3FF8
1FF0
0FE0
07C0
0380
0100
ENDCHAR
STARTCHAR E006
ENCODING 57350
SWIDTH 920 0
DWIDTH 23 0
BBX 19 19 2 0
BITMAP
001800
003800
007000
006000
3F1F80
7FFFC0
FFFF80
FFFF00
FFFF00
FFFF00
FFFF00
FFFF00
FFFF80
7FFFC0
7FFFE0
3FFFC0
1FFF80
1FFF00
0F1E00
ENDCHAR
STARTCHAR E007
ENCODING 57351
SWIDTH 600 0
DWIDTH 15 0
BBX 11 2 2 8
BITMAP
FFE0
FFE0
ENDCHAR
STARTCHAR E008
ENCODING 57352
SWIDTH 760 0
DWIDTH 19 0
BBX 15 11 2 4
BITMAP
00E0
00C0
FFFE
FFFE
0180
0380
0300
FFFE
FFFE
0600
0E00
ENDCHAR
STARTCHAR E009
ENCODING 57353
SWIDTH 1160 0
DWIDTH 29 0
BBX 25 11 2 4
BITMAP
7F80FF00
FFC1FF80
E0E3C180
C07F8180
C03F0180
C03E0180
C03F0180
C0738180
E0E3C180
FFE1FF80
7F80FF00
ENDCHAR
STARTCHAR E00A
ENCODING 57354
SWIDTH 520 0
DWIDTH 13 0
BBX 9 15 2 0
BITMAP
0700
0E00
1C00
3800
7000
E000
3000
1800
0C00
0600
0100
0000
0000
FF80
FF80
ENDCHAR
STARTCHAR E00B
ENCODING 57355
SWIDTH 520 0
DWIDTH 13 0
BBX 9 15 2 0
BITMAP
7000
1800
0C00
0600
0300
0380
0700
0E00
1C00
3800
4000
0000
0000
FF00
FF00
ENDCHAR
STARTCHAR E00C
ENCODING 57356
SWIDTH 680 0
DWIDTH 17 0
BBX 13 17 2 0
BITMAP
3F00
3FE0
01F0
01F0
1FF0
3FF8
7FF8
7878
F078
F078
F078
F078
F078
F070
F0F0
FFE0
7FC0
ENDCHAR
STARTCHAR E00D
ENCODING 57357
SWIDTH 760 0
DWIDTH 19 0
BBX 15 19 2 0
BITMAP
FFFE
FFFE
7C06
3E06
1F00
0F80
07C0
03E0
01F0
01F8
03E0
07C0
0F80
1F00
3E06
7C06
FC06
FFFE
FFFE
ENDCHAR
STARTCHAR E00E
ENCODING 57358
SWIDTH 840 0
DWIDTH 21 0
BBX 17 19 2 0
BITMAP
FFFF80
FFFF80
3C3E00
3C3E00
3C3E00
3C3E00
3C3E00
3C3E00
3C3E00
3C3E00
3C3E00
3C3E00
3C3E00
3C3E00
3C3E00
3C3E00
3C3E00
3C3E00
3C3E00
ENDCHAR
STARTCHAR E00F
ENCODING 57359
SWIDTH 960 0
DWIDTH 24 0
BBX 20 17 2 0
BITMAP
000030
000070
FFFFF0
FFFFE0
EF0780
CF0780
0F0780
0F0780
0F0780
0F0780
0F0780
0F0780
0F0780
0F0780
0F0780
0F0700
0E0600
ENDCHAR
STARTCHAR E010
ENCODING 57360
SWIDTH 520 0
DWIDTH 13 0
BBX 8 23 2 -4
BITMAP
1F
3F
3C
3C
3C
3C
3C
3C
3C
3C
3C
3C
3C
3C
3C
3C
3C
3C
3C
3C
3C
FC
F8
ENDCHAR
STARTCHAR E011
ENCODING 57361
SWIDTH 840 0
DWIDTH 21 0
BBX 17 19 2 0
BITMAP
1FFC00
3FFE00
780F00
F00F00
F00780
F00780
F00780
F00780
F00780
F00780
F00780
780F00
3C1E00
0C3800
0C3800
0C3800
0C3800
3C3E00
3C3E00
ENDCHAR
STARTCHAR E012
ENCODING 57362
SWIDTH 1000 0
DWIDTH 25 0
BBX 21 21 2 0
BITMAP
0001F8
0003F8
000380
000700
000700
000600
000E00
000C00
101C00
781800
F83800
F83800
9C7000
1C7000
0EE000
0EE000
0FC000
07C000
078000
078000
030000
ENDCHAR
STARTCHAR E013
ENCODING 57363
SWIDTH 840 0
DWIDTH 21 0
BBX 13 11 4 4
BITMAP
0018
0038
7FF0
FFF0
E000
C038
0078
7FF0
FFE0
E000
C000
ENDCHAR
STARTCHAR E014
ENCODING 57364
SWIDTH 800 0
DWIDTH 20 0
BBX 18 17 1 0
BITMAP
008000
00C000
01C000
01E000
036000
033000
063000
061800
0C1800
0C0C00
180C00
180600
300600
300300
600300
7FFF80
FFFFC0
ENDCHAR
STARTCHAR E015
ENCODING 57365
SWIDTH 360 0
DWIDTH 9 0
BBX 0 0 0 0
BITMAP
ENDCHAR
STARTCHAR E016
ENCODING 57366
SWIDTH 760 0
DWIDTH 19 0
BBX 17 18 1 1
BITMAP
008000
01C000
03E000
077000
0E3800
1C1C00
380E00
300700
600380
E00380
700700
380E00
1C1C00
0E3800
077000
03E000
01C000
008000
ENDCHAR
STARTCHAR E017
ENCODING 57367
SWIDTH 1040 0
DWIDTH 26 0
BBX 21 22 3 0
BITMAP
000400
000C00
001C00
003800
003000
1F07C0
7FFFF0
7FFFE0
FFFFC0
FFFFC0
FFFF80
FFFF80
FFFF80
FFFFC0
FFFFC0
7FFFE0
7FFFF8
3FFFF0
3FFFE0
1FFFE0
0FFFC0
078F80
ENDCHAR
ENDFONT
